<?xml version="1.0" encoding="UTF-8"?>
<!DOCTYPE svg PUBLIC "-//W3C//DTD SVG 1.1//EN" "http://www.w3.org/Graphics/SVG/1.1/DTD/svg11.dtd">
<!-- Creator: CorelDRAW X8 -->
<svg xmlns="http://www.w3.org/2000/svg" xml:space="preserve" width="10mm" height="15mm" version="1.1" style="shape-rendering:geometricPrecision; text-rendering:geometricPrecision; image-rendering:optimizeQuality; fill-rule:evenodd; clip-rule:evenodd"
viewBox="0 0 1000 1500"
 xmlns:xlink="http://www.w3.org/1999/xlink">
 <defs>
  <style type="text/css">
   <![CDATA[
    .fil2 {fill:none}
    .fil3 {fill:#E31E24}
    .fil4 {fill:#A02521}
    .fil1 {fill:black}
    .fil0 {fill:url(#id3)}
   ]]>
  </style>
   <clipPath id="id0">
    <path d="M223 1391l558 0 0 -183 -558 0 0 183z"/>
   </clipPath>
     <mask id="id1">
  <radialGradient id="id2" gradientUnits="userSpaceOnUse" cx="-61.46" cy="1671.92" r="0" fx="-61.46" fy="1671.92">
   <stop offset="0" style="stop-opacity:1; stop-color:white"/>
   <stop offset="0.4" style="stop-opacity:0; stop-color:white"/>
   <stop offset="1" style="stop-opacity:0; stop-color:white"/>
  </radialGradient>
      <rect style="fill:url(#id2)" x="223" y="1208" width="558" height="183"/>
     </mask>
  <radialGradient id="id3" gradientUnits="objectBoundingBox" cx="49%" cy="51%" r="49%" fx="49%" fy="51%">
   <stop offset="0" style="stop-opacity:1; stop-color:black"/>
   <stop offset="0.65098" style="stop-opacity:0; stop-color:white"/>
   <stop offset="1" style="stop-opacity:0; stop-color:white"/>
  </radialGradient>
 </defs>
 <g id="Слой_x0020_1">
  <metadata id="CorelCorpID_0Corel-Layer"/>
  <polygon class="fil0" points="223,1391 781,1391 781,1208 223,1208 "/>
  <g style="clip-path:url(#id0)">
   <g id="_810605808">
    <path id="1" class="fil1" style="mask:url(#id1)" d="M777 1300c0,-49 -123,-88 -275,-88 -152,0 -275,39 -275,88 0,48 123,87 275,87 152,0 275,-39 275,-87z"/>
   </g>
  </g>
  <polygon class="fil2" points="223,1391 781,1391 781,1208 223,1208 "/>
  <path class="fil3" d="M502 117c-249,0 -450,198 -450,445 0,246 450,740 450,740 0,0 450,-494 450,-740 0,-247 -202,-445 -450,-445z"/>
  <circle class="fil4" cx="502" cy="536" r="208"/>
 </g>
</svg>
