<?xml version="1.0" encoding="UTF-8"?>
<svg width="94px" height="14px" viewBox="0 0 94 14" version="1.1" xmlns="http://www.w3.org/2000/svg" xmlns:xlink="http://www.w3.org/1999/xlink">
    <!-- Generator: Sketch 46.2 (44496) - http://www.bohemiancoding.com/sketch -->
    <title>hearts</title>
    <desc>Created with Sketch.</desc>
    <defs></defs>
    <g id="Page-1" stroke="none" stroke-width="1" fill="none" fill-rule="evenodd">
        <g id="Lepreco.in_Desktop" transform="translate(-673.000000, -913.000000)" fill-rule="nonzero" fill="#FFFFFF">
            <g id="hearts" transform="translate(673.000000, 913.000000)">
                <path d="M12.933,2.254 L12.933,0.125 C12.933,0.111 12.922,0.1 12.908,0.1 L8.598,0.1 C8.584,0.1 8.573,0.111 8.573,0.125 L8.573,2.254 L6.513,2.254 L6.513,0.125 C6.513,0.111 6.502,0.1 6.488,0.1 L2.18,0.1 C2.166,0.1 2.155,0.111 2.155,0.125 L2.155,2.254 L0.025,2.254 C0.011,2.254 0,2.265 0,2.279 L0,6.589 C0,6.603 0.011,6.614 0.025,6.614 L2.155,6.614 L2.155,8.743 C2.155,8.757 2.166,8.768 2.18,8.768 L4.309,8.768 L4.309,10.898 C4.309,10.912 4.32,10.923 4.334,10.923 L6.438,10.923 L6.438,13.007 C6.438,13.021 6.449,13.032 6.463,13.032 L8.617,13.032 C8.631,13.032 8.642,13.02 8.642,13.007 L8.642,10.923 L10.753,10.923 C10.767,10.923 10.778,10.911 10.778,10.898 L10.778,8.768 L12.908,8.768 C12.922,8.768 12.933,8.756 12.933,8.743 L12.933,6.614 L15.063,6.614 C15.077,6.614 15.088,6.603 15.088,6.589 L15.088,2.279 C15.088,2.265 15.077,2.254 15.063,2.254 L12.933,2.254 Z" id="Shape"></path>
                <polygon id="Shape" points="32.643 0 28.084 0 28.084 2.154 26.224 2.154 26.224 0 21.665 0 21.665 2.154 19.51 2.154 19.51 6.713 21.665 6.713 21.665 8.868 23.819 8.868 23.819 11.023 25.948 11.023 25.948 13.132 28.353 13.132 28.353 11.023 30.488 11.023 30.488 8.868 32.643 8.868 32.643 6.713 34.798 6.713 34.798 2.154 32.643 2.154"></polygon>
                <polygon id="Shape" points="52.254 0 47.694 0 47.694 2.154 45.835 2.154 45.835 0 41.276 0 41.276 2.154 39.121 2.154 39.121 6.713 41.276 6.713 41.276 8.868 43.43 8.868 43.43 11.023 45.559 11.023 45.559 13.132 47.963 13.132 47.963 11.023 50.099 11.023 50.099 8.868 52.254 8.868 52.254 6.713 54.408 6.713 54.408 2.154 52.254 2.154"></polygon>
                <polygon id="Shape" points="71.864 0 67.304 0 67.304 2.154 65.444 2.154 65.444 0 60.886 0 60.886 2.154 58.731 2.154 58.731 6.713 60.886 6.713 60.886 8.868 63.04 8.868 63.04 11.023 65.169 11.023 65.169 13.132 67.573 13.132 67.573 11.023 69.709 11.023 69.709 8.868 71.864 8.868 71.864 6.713 74.019 6.713 74.019 2.154 71.864 2.154"></polygon>
                <path d="M91.475,2.154 L91.475,0 L86.914,0 L86.914,2.154 L85.055,2.154 L85.055,0 L80.496,0 L80.496,2.154 L78.342,2.154 L78.342,6.714 L80.496,6.714 L80.496,8.868 L82.65,8.868 L82.65,11.023 L84.779,11.023 L84.779,13.132 L87.183,13.132 L87.183,11.023 L89.319,11.023 L89.319,8.868 L91.474,8.868 L91.474,6.714 L93.628,6.714 L93.628,2.154 L91.475,2.154 L91.475,2.154 Z M91.225,6.463 L89.07,6.463 L89.07,8.617 L86.915,8.617 L86.915,10.727 L85.056,10.727 L85.056,8.617 L82.902,8.617 L82.902,6.463 L80.748,6.463 L80.748,2.403 L84.807,2.403 L84.807,4.558 L87.212,4.558 L87.212,2.403 L91.227,2.403 L91.227,6.463 L91.225,6.463 Z" id="Shape"></path>
            </g>
        </g>
    </g>
</svg>