<?xml version="1.0" encoding="UTF-8"?>
<svg width="190px" height="40px" viewBox="0 0 190 40" version="1.1" xmlns="http://www.w3.org/2000/svg" xmlns:xlink="http://www.w3.org/1999/xlink">
    <!-- Generator: Sketch 46.2 (44496) - http://www.bohemiancoding.com/sketch -->
    <title>Lepreco.in</title>
    <desc>Created with Sketch.</desc>
    <defs></defs>
    <g id="Page-1" stroke="none" stroke-width="1" fill="none" fill-rule="evenodd">
        <g id="Lepreco.in_Desktop" transform="translate(-625.000000, -133.000000)" fill="#FFFFFF">
            <path d="M625.587715,163.031153 L640.700398,163.031153 L641.74989,158.835929 L631.045073,158.835929 L631.045073,135.284528 L625,135.284528 L625.587715,139.562825 L625.587715,163.031153 Z M653.21034,141.431983 C660.556783,141.431983 661.102519,149.199377 661.186478,152.314642 L660.178966,153.311526 L648.550597,153.311526 C648.760495,156.676012 650.481662,159.334372 653.798056,159.334372 C657.450287,159.334372 660.850641,156.385254 660.850641,156.385254 L661.606275,160.622015 C661.606275,160.622015 658.247901,163.571132 652.790544,163.571132 C646.535572,163.571132 643.219178,158.420561 643.219178,153.062305 C643.219178,146.997923 646.199735,141.431983 653.21034,141.431983 Z M652.706584,144.962617 C650.397702,144.962617 649.222271,147.03946 648.760495,149.656282 L655.7711,149.656282 C655.645161,147.662513 654.931507,144.962617 652.706584,144.962617 Z M666.05612,173 L666.05612,146.25026 L665.468405,142.055036 L671.2616,141.431983 L671.2616,143.758048 C672.940787,142.221184 674.703933,141.431983 676.38312,141.431983 C680.874945,141.431983 684.779054,145.170301 684.779054,152.065421 C684.779054,158.254413 680.24525,163.571132 673.696421,163.571132 C672.982766,163.571132 672.101193,163.488058 671.2616,163.404984 L671.2616,169.42783 L671.723376,173 L666.05612,173 Z M675.03977,145.71028 C672.688909,145.71028 671.2616,147.454829 671.2616,147.454829 L671.2616,159.666667 C671.2616,159.666667 672.730888,159.832814 674.368095,159.832814 C677.012815,159.832814 679.195758,156.592939 679.195758,152.439252 C679.195758,147.911734 677.306673,145.71028 675.03977,145.71028 Z M704.131684,142.968847 C703.124171,141.930426 701.948741,141.431983 700.647371,141.431983 C696.995139,141.431983 694.938135,145.294912 694.938135,145.294912 L694.938135,141.515057 L689.14494,142.13811 L689.732656,146.333333 L689.732656,163.031153 L695.399912,163.031153 L694.938135,159.458982 L694.938135,152.314642 C694.938135,149.074766 697.540875,146.416407 699.723818,146.416407 C701.319046,146.416407 702.536456,147.537902 702.536456,147.537902 L704.131684,142.968847 Z M715.634114,141.431983 C722.980557,141.431983 723.526293,149.199377 723.610252,152.314642 L722.60274,153.311526 L710.97437,153.311526 C711.184269,156.676012 712.905435,159.334372 716.221829,159.334372 C719.874061,159.334372 723.274414,156.385254 723.274414,156.385254 L724.030049,160.622015 C724.030049,160.622015 720.671675,163.571132 715.214317,163.571132 C708.959346,163.571132 705.642952,158.420561 705.642952,153.062305 C705.642952,146.997923 708.623509,141.431983 715.634114,141.431983 Z M715.130358,144.962617 C712.821476,144.962617 711.646045,147.03946 711.184269,149.656282 L718.194874,149.656282 C718.068935,147.662513 717.355281,144.962617 715.130358,144.962617 Z M744.684048,144.214953 C744.684048,144.214953 742.165267,141.431983 737.001768,141.431983 C730.24304,141.431983 726.590809,146.831776 726.590809,152.896158 C726.590809,158.254413 729.697304,163.571132 735.952276,163.571132 C741.451613,163.571132 744.600088,160.331256 744.600088,160.331256 L743.844454,156.011423 C743.844454,156.011423 740.612019,159.334372 736.959788,159.334372 C733.517455,159.334372 731.922227,156.011423 731.922227,152.522326 C731.922227,148.784008 733.517455,145.377985 737.127707,145.377985 C738.680954,145.377985 740.737958,146.042575 742.291206,147.953271 L744.684048,144.214953 Z M767.814848,152.065421 C767.814848,158.254413 763.742819,163.571132 756.732214,163.571132 C750.351304,163.571132 747.034909,158.046729 747.034909,152.813084 C747.034909,146.624091 751.022978,141.431983 758.159523,141.431983 C763.65886,141.431983 767.814848,144.713396 767.814848,152.065421 Z M752.576226,152.480789 C752.576226,156.634476 754.381352,159.874351 757.403889,159.874351 C760.426425,159.874351 762.231551,156.634476 762.231551,152.480789 C762.231551,148.327103 760.426425,145.128764 757.403889,145.128764 C754.381352,145.128764 752.576226,148.327103 752.576226,152.480789 Z M778.267786,160.497404 C778.267786,158.919003 776.966416,157.382139 775.119311,157.382139 C773.272205,157.382139 771.970835,158.919003 771.970835,160.497404 C771.970835,162.200415 773.272205,163.571132 775.119311,163.571132 C776.966416,163.571132 778.267786,162.200415 778.267786,160.497404 Z M789.518338,141.431983 L783.725144,142.055036 L784.312859,146.25026 L784.312859,163.031153 L789.980115,163.031153 L789.518338,159.458982 L789.518338,141.431983 Z M783.893062,135.90758 C783.893062,137.444444 785.236412,138.69055 786.831639,138.69055 C788.342908,138.69055 789.644278,137.444444 789.644278,135.90758 C789.644278,134.287643 788.342908,133 786.831639,133 C785.236412,133 783.893062,134.287643 783.893062,135.90758 Z M815,163.031153 L814.538224,159.542056 L814.538224,146.748702 C814.538224,143.134995 811.389748,141.431983 808.199293,141.431983 C805.890411,141.431983 803.371631,142.345794 801.524525,144.007269 L801.524525,141.47352 L795.73133,142.096573 L796.319046,146.291796 L796.319046,163.031153 L801.986301,163.031153 L801.524525,159.458982 L801.524525,148.119418 C801.524525,148.119418 803.581529,145.751817 806.771984,145.751817 C808.912947,145.751817 809.332744,146.997923 809.332744,150.902388 L809.332744,163.031153 L815,163.031153 Z" id="Lepreco.in"></path>
        </g>
    </g>
</svg>