<?xml version="1.0" encoding="UTF-8"?>
<!DOCTYPE svg PUBLIC "-//W3C//DTD SVG 1.1//EN" "http://www.w3.org/Graphics/SVG/1.1/DTD/svg11.dtd">
<!-- Creator: CorelDRAW X8 -->
<svg xmlns="http://www.w3.org/2000/svg" xml:space="preserve" width="6mm" height="6mm" version="1.1" style="shape-rendering:geometricPrecision; text-rendering:geometricPrecision; image-rendering:optimizeQuality; fill-rule:evenodd; clip-rule:evenodd"
viewBox="0 0 600 600"
 xmlns:xlink="http://www.w3.org/1999/xlink">
 <defs>
  <style type="text/css">
   <![CDATA[
    .fil0 {fill:#E6E6E6}
   ]]>
  </style>
 </defs>
 <g id="Слой_x0020_1">
  <metadata id="CorelCorpID_0Corel-Layer"/>
  <path class="fil0" d="M106 54c-7,-7 -16,-11 -25,-11 -10,0 -19,4 -26,11 -7,7 -10,16 -10,25 0,10 3,19 10,25l201 201 -201 201c-7,6 -10,15 -10,25 0,10 3,19 10,25 7,7 16,11 26,11 9,0 18,-4 25,-11l200 -200 201 200c14,14 37,15 51,0 6,-6 11,-15 11,-25 0,-10 -5,-19 -11,-25l-201 -201 201 -201c6,-6 11,-15 11,-25 0,-9 -5,-18 -11,-25 -7,-7 -16,-11 -25,-11 -10,0 -19,4 -26,11l-201 200 -200 -200z"/>
 </g>
</svg>
