<?xml version="1.0" encoding="UTF-8"?>
<!DOCTYPE svg PUBLIC "-//W3C//DTD SVG 1.1//EN" "http://www.w3.org/Graphics/SVG/1.1/DTD/svg11.dtd">
<!-- Creator: CorelDRAW X8 -->
<svg xmlns="http://www.w3.org/2000/svg" xml:space="preserve" width="10mm" height="10mm" version="1.1" style="shape-rendering:geometricPrecision; text-rendering:geometricPrecision; image-rendering:optimizeQuality; fill-rule:evenodd; clip-rule:evenodd"
viewBox="0 0 1000 1000"
 xmlns:xlink="http://www.w3.org/1999/xlink">
 <defs>
  <style type="text/css">
   <![CDATA[
    .fil0 {fill:#E6E6E6}
   ]]>
  </style>
 </defs>
 <g id="Слой_x0020_1">
  <metadata id="CorelCorpID_0Corel-Layer"/>
  <path class="fil0" d="M160 86c-11,-11 -27,-18 -42,-18 -16,0 -31,7 -43,18 -11,11 -17,26 -17,42 0,16 6,31 17,42l335 335 -335 334c-11,11 -17,26 -17,42 0,16 6,31 17,42 12,12 27,18 43,18 16,0 31,-6 42,-18l334 -334 335 334c23,23 61,24 84,0 11,-11 18,-26 18,-42 0,-16 -7,-31 -18,-42l-334 -334 334 -335c11,-11 18,-26 18,-42 0,-16 -7,-31 -18,-42 -11,-12 -26,-18 -42,-18 -16,0 -31,6 -42,18l-335 334 -334 -334z"/>
 </g>
</svg>
